<svg width="244" height="82" viewBox="0 0 244 82" fill="none" xmlns="http://www.w3.org/2000/svg">
<g filter="url(#filter0_d)">
<path fill-rule="evenodd" clip-rule="evenodd" d="M115.778 27.6613C115.777 26.7065 115.964 25.7608 116.329 24.8783C116.693 23.9957 117.228 23.1936 117.902 22.5177C118.577 21.8419 119.378 21.3055 120.26 20.9392C121.141 20.5728 122.087 20.3838 123.041 20.3828C123.996 20.3818 124.942 20.5689 125.825 20.9334C126.707 21.2979 127.509 21.8327 128.185 22.5071C128.861 23.1816 129.397 23.9826 129.764 24.8644C130.13 25.7462 130.319 26.6915 130.32 27.6463V39.8573C130.319 40.8122 130.13 41.7575 129.764 42.6392C129.397 43.521 128.861 44.322 128.185 44.9965C127.509 45.671 126.707 46.2057 125.825 46.5702C124.942 46.9347 123.996 47.1218 123.041 47.1208C122.087 47.1198 121.141 46.9308 120.26 46.5645C119.378 46.1982 118.577 45.6618 117.902 44.9859C117.228 44.31 116.693 43.5079 116.329 42.6254C115.964 41.7428 115.777 40.7972 115.778 39.8423C115.769 31.9953 115.769 35.5093 115.778 27.6613Z" fill="#7BA9DA"/>
<path fill-rule="evenodd" clip-rule="evenodd" d="M101.184 27.8213L107.237 34.0903C107.912 34.7908 108.442 35.6173 108.798 36.5227C109.153 37.4282 109.327 38.3948 109.309 39.3673C109.291 40.3399 109.081 41.2994 108.693 42.191C108.304 43.0826 107.743 43.8889 107.043 44.5638C106.342 45.2387 105.516 45.7691 104.61 46.1246C103.705 46.4801 102.738 46.6537 101.765 46.6357C100.793 46.6176 99.8335 46.4082 98.9419 46.0193C98.0502 45.6304 97.244 45.0698 96.569 44.3693C93.527 41.2253 92.249 39.9043 90.807 38.4103L84.66 44.6823C83.9623 45.3981 83.1265 45.9647 82.2032 46.3479C81.28 46.731 80.2886 46.9227 79.289 46.9113H79.232C77.2791 46.885 75.4152 46.0905 74.0438 44.6999C72.6725 43.3092 71.9041 41.4344 71.905 39.4813L71.974 19.8943L86.698 19.9033L86.685 21.4463L105.012 2.74629C105.735 2.00538 106.605 1.42447 107.566 1.04119C108.528 0.657906 109.559 0.480784 110.593 0.521288L151.214 0.55929C152.187 0.558305 153.15 0.748915 154.049 1.12024C154.948 1.49157 155.765 2.03634 156.454 2.72345C157.142 3.41056 157.689 4.22654 158.062 5.12482C158.435 6.0231 158.628 6.98609 158.629 7.95879C158.63 8.93149 158.439 9.89486 158.068 10.7939C157.696 11.6929 157.151 12.51 156.464 13.1985C155.777 13.887 154.961 14.4334 154.063 14.8066C153.165 15.1797 152.202 15.3723 151.229 15.3733L113.415 15.3383L101.185 27.8163L101.184 27.8213Z" fill="white"/>
<path fill-rule="evenodd" clip-rule="evenodd" d="M71.9121 14.0562C71.8881 13.0693 72.0615 12.0876 72.4223 11.1687C72.7831 10.2498 73.3239 9.41231 74.013 8.70543C74.7021 7.99855 75.5255 7.43654 76.4349 7.05244C77.3443 6.66834 78.3212 6.46989 79.3084 6.46875C80.2956 6.46762 81.273 6.66383 82.1833 7.04584C83.0935 7.42786 83.9183 7.98798 84.6089 8.69327C85.2996 9.39857 85.8424 10.2348 86.2053 11.1529C86.5682 12.0709 86.7439 13.0522 86.7221 14.0392V23.2392C86.7201 25.2036 85.9378 27.0868 84.5474 28.4745C83.1569 29.8622 81.2721 30.6407 79.3076 30.6387C77.3432 30.6367 75.4599 29.8544 74.0723 28.4639C72.6846 27.0734 71.9061 25.1886 71.9081 23.2242C71.8991 15.2302 71.8991 22.0542 71.9081 14.0602L71.9121 14.0562Z" fill="#7BA9DA"/>
<path d="M19.858 54.5195L10.412 64.0115L19.779 73.4235H14.91L7.968 66.4515L7.457 66.9675V73.4235H4V54.5235H7.456V62.0665L14.999 54.5235L19.858 54.5195Z" fill="white"/>
<path d="M43.189 54.5195L37.178 73.4195H34.293L30.493 61.2195L26.686 73.4195H23.744L17.854 54.5195H21.465L25.217 66.6615L28.974 54.5195H32.009L35.771 66.7055L39.583 54.5195H43.189Z" fill="white"/>
<path d="M61.671 65.7277H46.465C46.8187 66.9743 47.5808 68.066 48.629 68.8277C49.6704 69.6023 50.9372 70.014 52.235 69.9997C53.0537 69.9884 53.8605 69.803 54.6019 69.4558C55.3433 69.1085 56.0023 68.6074 56.535 67.9857L59.57 69.7587C58.7136 70.8987 57.6073 71.8274 56.3362 72.4734C55.065 73.1195 53.6628 73.4658 52.237 73.4857C50.3572 73.496 48.5166 72.9477 46.9488 71.9103C45.3811 70.8729 44.1568 69.3933 43.4312 67.659C42.7057 65.9248 42.5116 64.0141 42.8737 62.1694C43.2357 60.3247 44.1375 58.6291 45.4647 57.2977C46.7918 55.9663 48.4846 55.0592 50.3281 54.6913C52.1717 54.3234 54.0829 54.5114 55.8195 55.2314C57.556 55.9515 59.0395 57.1711 60.0819 58.7355C61.1242 60.3 61.6784 62.1388 61.674 64.0187L61.671 65.7277ZM57.971 62.2717C57.5942 61.0392 56.8316 59.9603 55.7956 59.1937C54.7596 58.4271 53.5048 58.0133 52.216 58.0133C50.9272 58.0133 49.6725 58.4271 48.6364 59.1937C47.6004 59.9603 46.8379 61.0392 46.461 62.2717H57.971Z" fill="white"/>
<path d="M82.017 65.7277H66.811C67.1646 66.9743 67.9267 68.066 68.975 68.8277C70.0164 69.6023 71.2831 70.014 72.581 69.9997C73.3996 69.9884 74.2065 69.803 74.9479 69.4558C75.6893 69.1085 76.3483 68.6074 76.881 67.9857L79.916 69.7587C79.0595 70.8987 77.9533 71.8274 76.6821 72.4734C75.411 73.1195 74.0087 73.4658 72.583 73.4857C70.7031 73.496 68.8626 72.9477 67.2948 71.9103C65.727 70.8729 64.5027 69.3933 63.7772 67.659C63.0517 65.9248 62.8576 64.0141 63.2196 62.1694C63.5816 60.3247 64.4834 58.6291 65.8106 57.2977C67.1378 55.9663 68.8305 55.0592 70.6741 54.6913C72.5176 54.3234 74.4289 54.5114 76.1654 55.2314C77.902 55.9515 79.3855 57.1711 80.4278 58.7355C81.4702 60.3 82.0243 62.1388 82.02 64.0187L82.017 65.7277ZM78.317 62.2717C77.9401 61.0392 77.1776 59.9603 76.1416 59.1937C75.1055 58.4271 73.8508 58.0133 72.562 58.0133C71.2732 58.0133 70.0184 58.4271 68.9824 59.1937C67.9464 59.9603 67.1838 61.0392 66.807 62.2717H78.317Z" fill="white"/>
<path d="M99.318 54.5195L89.871 64.0115L99.238 73.4235H94.369L87.426 66.4515L86.915 66.9675V73.4235H83.459V54.5235H86.915V62.0665L94.458 54.5235L99.318 54.5195Z" fill="white"/>
<path d="M112.128 58.0029H107.35V73.4199H103.894V58.0029H99.3259V54.5469H112.126L112.128 58.0029Z" fill="#7BA9DA"/>
<path d="M132.324 73.4242H127.455L119.761 65.7002H117.026V73.4242H113.57V54.5242H124.389C125.123 54.5117 125.852 54.6512 126.529 54.934C127.207 55.2167 127.819 55.6366 128.326 56.1672C129.35 57.2084 129.932 58.6056 129.949 60.0661C129.965 61.5265 129.416 62.9368 128.416 64.0012C127.93 64.523 127.345 64.9423 126.695 65.2342C126.044 65.5262 125.342 65.685 124.629 65.7012L132.323 73.4252L132.324 73.4242ZM126.494 60.1242C126.498 59.8436 126.446 59.565 126.34 59.3051C126.234 59.0451 126.077 58.8092 125.878 58.6112C125.688 58.4068 125.458 58.2446 125.202 58.135C124.945 58.0255 124.669 57.971 124.39 57.9752H117.027V62.2432H124.39C124.668 62.2479 124.943 62.1952 125.199 62.0883C125.455 61.9814 125.686 61.8227 125.878 61.6222C126.078 61.4275 126.235 61.194 126.341 60.936C126.447 60.678 126.499 60.4011 126.494 60.1222V60.1242Z" fill="#7BA9DA"/>
<path d="M150.326 73.4208H146.87V71.2868C145.193 72.6855 143.073 73.4419 140.889 73.4208C139.373 73.4262 137.879 73.0664 136.531 72.3719C135.184 71.6774 134.024 70.6687 133.149 69.431C132.274 68.1933 131.71 66.763 131.505 65.2613C131.3 63.7596 131.46 62.2305 131.971 60.8035C132.481 59.3765 133.328 58.0935 134.44 57.0631C135.551 56.0327 136.895 55.2852 138.356 54.8838C139.818 54.4824 141.355 54.439 142.837 54.7572C144.319 55.0754 145.702 55.7458 146.87 56.7118V54.5478H150.326V73.4208ZM146.87 63.9688C146.865 62.595 146.383 61.2655 145.508 60.2065C144.633 59.1475 143.418 58.4243 142.07 58.1601C140.722 57.8958 139.324 58.1068 138.114 58.7571C136.904 59.4074 135.956 60.4569 135.433 61.727C134.909 62.9971 134.842 64.4094 135.242 65.7236C135.642 67.0378 136.485 68.1727 137.628 68.9354C138.771 69.698 140.142 70.0411 141.509 69.9065C142.877 69.7718 144.155 69.1677 145.127 68.1968C145.691 67.6487 146.137 66.9909 146.436 66.2639C146.736 65.5369 146.884 64.7561 146.87 63.9698V63.9688Z" fill="#7BA9DA"/>
<path d="M168.027 73.4214H164.571V62.6724C164.58 62.0567 164.463 61.4456 164.228 60.8764C163.993 60.3072 163.645 59.7917 163.204 59.3614C162.781 58.9154 162.27 58.5619 161.704 58.3231C161.137 58.0844 160.528 57.9657 159.913 57.9744C159.296 57.973 158.685 58.0936 158.115 58.3295C157.544 58.5653 157.026 58.9116 156.591 59.3485C156.155 59.7854 155.81 60.3042 155.575 60.875C155.341 61.4458 155.222 62.0574 155.225 62.6744V73.4234H151.769V54.5234H155.225V56.0564C156.781 54.9291 158.688 54.3948 160.603 54.5499C162.518 54.705 164.314 55.5394 165.668 56.9024C166.433 57.6551 167.037 58.5558 167.443 59.5495C167.848 60.5433 168.047 61.6093 168.027 62.6824V73.4214Z" fill="#7BA9DA"/>
<path d="M184.767 67.4399C184.808 68.3873 184.589 69.3279 184.133 70.1596C183.677 70.9913 183.003 71.6824 182.182 72.1579C180.758 73.0067 179.122 73.434 177.464 73.3899C172.135 73.3899 169.47 70.4849 169.47 64.6749H172.926C172.804 66.0457 173.109 67.4207 173.798 68.6119C174.459 69.4932 175.681 69.9339 177.464 69.9339C178.334 69.9615 179.198 69.7866 179.988 69.4229C180.385 69.2676 180.725 68.9942 180.961 68.6395C181.198 68.2848 181.319 67.866 181.31 67.4399C181.292 67.0418 181.153 66.6587 180.911 66.3419C180.67 66.025 180.337 65.7895 179.958 65.6669C179.198 65.4075 178.426 65.1869 177.644 65.0059C176.051 64.6669 174.492 64.1839 172.986 63.5629C172.252 63.1876 171.642 62.6074 171.232 61.8926C170.821 61.1777 170.627 60.3591 170.672 59.5359C170.675 58.4665 171.058 57.4331 171.754 56.6209C172.876 55.2382 174.639 54.5469 177.043 54.5469C181.51 54.5469 183.743 57.0312 183.743 61.9999H180.287C180.372 60.9843 180.174 59.9651 179.716 59.0549C179.395 58.6682 178.982 58.369 178.515 58.185C178.047 58.0011 177.541 57.9384 177.043 58.0029C176.439 57.9963 175.838 58.098 175.27 58.3029C174.509 58.5835 174.128 58.9942 174.128 59.5349C174.1 59.7516 174.144 59.9714 174.252 60.1612C174.36 60.3509 174.527 60.5003 174.728 60.5869C174.989 60.6869 176.401 61.0775 178.965 61.7589C180.399 62.0567 181.76 62.6392 182.965 63.4719C183.557 63.9443 184.028 64.55 184.341 65.2394C184.654 65.9289 184.799 66.6825 184.765 67.4389L184.767 67.4399Z" fill="#7BA9DA"/>
<path d="M199.342 65.6694H189.725V73.4234H186.269V54.5234H199.342V57.9794H189.725V62.2114H199.342V65.6694Z" fill="#7BA9DA"/>
<path d="M219.688 65.7277H204.481C204.835 66.9743 205.597 68.066 206.645 68.8277C207.686 69.6023 208.953 70.014 210.251 69.9997C211.07 69.9884 211.876 69.803 212.618 69.4558C213.359 69.1085 214.018 68.6074 214.551 67.9857L217.586 69.7587C216.729 70.8987 215.623 71.8274 214.352 72.4734C213.081 73.1195 211.679 73.4658 210.253 73.4857C208.373 73.496 206.532 72.9477 204.965 71.9103C203.397 70.8729 202.173 69.3933 201.447 67.659C200.722 65.9248 200.528 64.0141 200.89 62.1694C201.252 60.3247 202.153 58.6291 203.481 57.2977C204.808 55.9663 206.5 55.0592 208.344 54.6913C210.188 54.3234 212.099 54.5114 213.835 55.2314C215.572 55.9515 217.055 57.1711 218.098 58.7355C219.14 60.3 219.694 62.1388 219.69 64.0187L219.688 65.7277ZM215.988 62.2717C215.611 61.0392 214.848 59.9603 213.812 59.1937C212.776 58.4271 211.522 58.0133 210.233 58.0133C208.944 58.0133 207.689 58.4271 206.653 59.1937C205.617 59.9603 204.855 61.0392 204.478 62.2717H215.988Z" fill="#7BA9DA"/>
<path d="M239.884 73.4242H235.015L227.321 65.7002H224.586V73.4242H221.13V54.5242H231.949C232.683 54.5117 233.412 54.6512 234.089 54.934C234.767 55.2167 235.378 55.6366 235.886 56.1672C236.91 57.2084 237.492 58.6056 237.508 60.0661C237.525 61.5265 236.976 62.9368 235.976 64.0012C235.49 64.523 234.905 64.9423 234.254 65.2342C233.604 65.5262 232.902 65.685 232.189 65.7012L239.884 73.4242ZM234.054 60.1242C234.058 59.8436 234.005 59.565 233.9 59.3051C233.794 59.0452 233.637 58.8092 233.438 58.6112C233.248 58.4068 233.018 58.2446 232.761 58.135C232.505 58.0255 232.229 57.971 231.95 57.9752H224.587V62.2432H231.95C232.227 62.2479 232.503 62.1952 232.759 62.0883C233.015 61.9814 233.246 61.8227 233.438 61.6222C233.638 61.4275 233.795 61.194 233.901 60.936C234.007 60.678 234.059 60.4011 234.054 60.1222V60.1242Z" fill="#7BA9DA"/>
<path d="M144.167 47.1208C148.26 47.1208 151.577 43.8032 151.577 39.7108C151.577 35.6184 148.26 32.3008 144.167 32.3008C140.075 32.3008 136.757 35.6184 136.757 39.7108C136.757 43.8032 140.075 47.1208 144.167 47.1208Z" fill="white"/>
</g>
<defs>
<filter id="filter0_d" x="0" y="0.515625" width="243.884" height="80.9702" filterUnits="userSpaceOnUse" color-interpolation-filters="sRGB">
<feFlood flood-opacity="0" result="BackgroundImageFix"/>
<feColorMatrix in="SourceAlpha" type="matrix" values="0 0 0 0 0 0 0 0 0 0 0 0 0 0 0 0 0 0 127 0" result="hardAlpha"/>
<feOffset dy="4"/>
<feGaussianBlur stdDeviation="2"/>
<feComposite in2="hardAlpha" operator="out"/>
<feColorMatrix type="matrix" values="0 0 0 0 0 0 0 0 0 0 0 0 0 0 0 0 0 0 0.25 0"/>
<feBlend mode="normal" in2="BackgroundImageFix" result="effect1_dropShadow"/>
<feBlend mode="normal" in="SourceGraphic" in2="effect1_dropShadow" result="shape"/>
</filter>
</defs>
</svg>
