<svg width="1038" height="1059" viewBox="0 0 1038 1059" fill="none" xmlns="http://www.w3.org/2000/svg">
<path opacity="0.63" d="M440.5 1038C673.84 1038 863 810.785 863 530.5C863 250.215 673.84 23 440.5 23C207.16 23 18 250.215 18 530.5C18 810.785 207.16 1038 440.5 1038Z" fill="#7BA9DA"/>
<path opacity="0.63" d="M422.5 1015C655.84 1015 845 787.785 845 507.5C845 227.215 655.84 0 422.5 0C189.16 0 0 227.215 0 507.5C0 787.785 189.16 1015 422.5 1015Z" fill="#37517E"/>
<path opacity="0.63" d="M454.946 263.122C680.587 190.536 897.864 285.445 940.247 475.108C982.63 664.772 834.073 877.37 608.43 949.954C382.786 1022.54 165.513 927.63 123.129 737.967C80.7451 548.304 229.305 335.709 454.946 263.122Z" fill="#7BA9DA"/>
<path opacity="0.63" d="M446.761 241.943C672.402 169.356 889.679 264.265 932.062 453.929C974.445 643.592 825.888 856.19 600.245 928.774C374.601 1001.36 157.328 906.451 114.944 716.787C72.56 527.124 221.12 314.529 446.761 241.943Z" fill="#37517E"/>
</svg>
